<svg width="65" height="65" viewBox="0 0 485 485" fill="none" xmlns="http://www.w3.org/2000/svg">
<g clip-path="url(#clip0_6_5)">
<path d="M124.064 215.816C127.264 222.864 124.136 231.152 117.088 234.344C110.048 237.536 101.76 234.416 98.568 227.368L46.56 112.608C43.368 105.568 46.48 97.272 53.528 94.08C60.576 90.896 68.864 94.008 72.048 101.056L124.064 215.816Z" fill="#033F33"/>
<path d="M52.56 91.952C45.52 95.144 42.4 103.44 45.592 110.48L51.376 123.232L76.872 111.68L71.104 98.928C67.904 91.88 59.616 88.76 52.56 91.952Z" fill="#DFE8E8"/>
<path d="M76.864 111.672L71.096 98.92C67.904 91.872 59.608 88.752 52.56 91.944C45.52 95.136 42.4 103.432 45.592 110.472" fill="#C0CCCC"/>
<path d="M73.6361 138.453L76.2147 131.585L69.3467 129.006L66.7681 135.874L73.6361 138.453Z" fill="#C0CCCC"/>
<path d="M80.624 153.91L83.2092 147.045L76.3517 144.463L73.7665 151.328L80.624 153.91Z" fill="#C0CCCC"/>
<path d="M87.6395 169.387L90.2249 162.53L83.3606 159.942L80.7752 166.799L87.6395 169.387Z" fill="#C0CCCC"/>
<path d="M94.618 184.803L97.2126 177.933L90.3648 175.347L87.7702 182.217L94.618 184.803Z" fill="#C0CCCC"/>
<path d="M101.633 200.215L104.219 193.35L97.3537 190.765L94.7685 197.63L101.633 200.215Z" fill="#C0CCCC"/>
<path d="M108.628 215.662L111.223 208.792L104.375 206.205L101.781 213.076L108.628 215.662Z" fill="#C0CCCC"/>
<path d="M156.016 211.216C157.832 215.248 156.048 219.984 152.032 221.808L84.624 252.352C80.608 254.176 75.864 252.392 74.04 248.368C72.208 244.336 73.992 239.6 78.024 237.776L145.424 207.232C149.456 205.408 154.192 207.192 156.016 211.216Z" fill="#C0CCCC"/>
<path d="M156.016 211.216C157.832 215.248 156.048 219.984 152.032 221.808L84.624 252.352C80.608 254.176 75.864 252.392 74.04 248.368" fill="#A5B5B4"/>
<path d="M134.569 312.454L164.313 298.97L132.377 228.523L102.633 242.007L134.569 312.454Z" fill="#033F33"/>
<path d="M360.272 215.816C357.08 222.864 360.192 231.152 367.248 234.344C374.288 237.536 382.576 234.416 385.768 227.368L437.776 112.6C440.968 105.56 437.856 97.2641 430.808 94.0721C423.76 90.8881 415.464 94.0001 412.288 101.048L360.272 215.816Z" fill="#033F33"/>
<path d="M431.776 91.952C438.816 95.144 441.944 103.44 438.736 110.48L432.96 123.232L407.456 111.68L413.232 98.928C416.432 91.88 424.72 88.76 431.776 91.952Z" fill="#DFE8E8"/>
<path d="M407.464 111.672L413.24 98.92C416.432 91.872 424.728 88.752 431.776 91.944C438.816 95.136 441.944 103.432 438.736 110.472" fill="#C0CCCC"/>
<path d="M417.561 135.869L414.982 129.001L408.114 131.58L410.693 138.448L417.561 135.869Z" fill="#C0CCCC"/>
<path d="M410.561 151.381L407.99 144.51L401.112 147.085L403.683 153.955L410.561 151.381Z" fill="#C0CCCC"/>
<path d="M403.532 166.698L400.947 159.842L394.083 162.43L396.668 169.286L403.532 166.698Z" fill="#C0CCCC"/>
<path d="M396.548 182.216L393.969 175.348L387.101 177.926L389.68 184.794L396.548 182.216Z" fill="#C0CCCC"/>
<path d="M389.551 197.724L386.966 190.859L380.116 193.438L382.701 200.303L389.551 197.724Z" fill="#C0CCCC"/>
<path d="M382.545 213.103L379.966 206.235L373.098 208.813L375.677 215.681L382.545 213.103Z" fill="#C0CCCC"/>
<path d="M328.32 211.216C326.488 215.248 328.288 219.984 332.304 221.808L399.696 252.352C403.736 254.176 408.472 252.392 410.296 248.368C412.128 244.336 410.344 239.6 406.312 237.776L338.896 207.232C334.88 205.408 330.144 207.192 328.32 211.216Z" fill="#C0CCCC"/>
<path d="M328.32 211.216C326.488 215.248 328.288 219.984 332.304 221.808L399.696 252.352C403.736 254.176 408.472 252.392 410.296 248.368" fill="#A5B5B4"/>
<path d="M381.677 242.008L351.933 228.524L320 298.963L349.744 312.447L381.677 242.008Z" fill="#033F33"/>
<path d="M330.168 250.168H154.168V426.168H330.168V250.168Z" fill="#054236"/>
<path d="M303.408 314.168H182.736L190.792 178.168H295.368L303.408 314.168Z" fill="#076855"/>
<path d="M303.424 278.696L255.616 376.432L182.752 178.168H295.376L303.424 278.696Z" fill="#065646"/>
<path d="M322.008 109.792C322.008 39.7601 290.168 11.4241 242.168 11.1441C194.168 11.4241 162.328 39.7601 162.328 109.792C162.328 179.824 194.168 243.144 242.168 244.656C290.168 243.144 322.008 179.824 322.008 109.792Z" fill="#14826D"/>
<path d="M242.168 242.168V244.792V244.648C290.168 243.144 322.008 179.816 322.008 109.792C322.008 39.768 290.168 11.424 242.168 11.144V11.112V10.168" fill="#076855"/>
<path d="M197.976 192.616C197.776 192.392 197.664 192.24 197.664 192.24C197.664 192.24 197.736 192.456 197.976 192.616Z" fill="#00233F"/>
<path d="M288.192 192.616C288.392 192.392 288.504 192.24 288.504 192.24C288.504 192.24 288.424 192.456 288.192 192.616Z" fill="#00233F"/>
<path d="M158.504 297.968C161.265 297.968 163.504 295.729 163.504 292.968C163.504 290.207 161.265 287.968 158.504 287.968C155.743 287.968 153.504 290.207 153.504 292.968C153.504 295.729 155.743 297.968 158.504 297.968Z" fill="#65C7EA"/>
<path d="M169.504 328.288C172.265 328.288 174.504 326.049 174.504 323.288C174.504 320.527 172.265 318.288 169.504 318.288C166.743 318.288 164.504 320.527 164.504 323.288C164.504 326.049 166.743 328.288 169.504 328.288Z" fill="#65C7EA"/>
<path d="M180.504 358.592C183.265 358.592 185.504 356.353 185.504 353.592C185.504 350.831 183.265 348.592 180.504 348.592C177.743 348.592 175.504 350.831 175.504 353.592C175.504 356.353 177.743 358.592 180.504 358.592Z" fill="#65C7EA"/>
<path d="M191.504 388.92C194.265 388.92 196.504 386.681 196.504 383.92C196.504 381.159 194.265 378.92 191.504 378.92C188.743 378.92 186.504 381.159 186.504 383.92C186.504 386.681 188.743 388.92 191.504 388.92Z" fill="#65C7EA"/>
<path d="M202.488 419.248C205.249 419.248 207.488 417.009 207.488 414.248C207.488 411.487 205.249 409.248 202.488 409.248C199.727 409.248 197.488 411.487 197.488 414.248C197.488 417.009 199.727 419.248 202.488 419.248Z" fill="#65C7EA"/>
<path d="M213.504 449.568C216.265 449.568 218.504 447.329 218.504 444.568C218.504 441.807 216.265 439.568 213.504 439.568C210.743 439.568 208.504 441.807 208.504 444.568C208.504 447.329 210.743 449.568 213.504 449.568Z" fill="#65C7EA"/>
<path d="M325.848 297.968C328.609 297.968 330.848 295.729 330.848 292.968C330.848 290.207 328.609 287.968 325.848 287.968C323.087 287.968 320.848 290.207 320.848 292.968C320.848 295.729 323.087 297.968 325.848 297.968Z" fill="#1982BC"/>
<path d="M314.808 328.288C317.569 328.288 319.808 326.049 319.808 323.288C319.808 320.527 317.569 318.288 314.808 318.288C312.047 318.288 309.808 320.527 309.808 323.288C309.808 326.049 312.047 328.288 314.808 328.288Z" fill="#1982BC"/>
<path d="M303.832 358.592C306.593 358.592 308.832 356.353 308.832 353.592C308.832 350.831 306.593 348.592 303.832 348.592C301.071 348.592 298.832 350.831 298.832 353.592C298.832 356.353 301.071 358.592 303.832 358.592Z" fill="#1982BC"/>
<path d="M292.808 388.92C295.569 388.92 297.808 386.681 297.808 383.92C297.808 381.159 295.569 378.92 292.808 378.92C290.047 378.92 287.808 381.159 287.808 383.92C287.808 386.681 290.047 388.92 292.808 388.92Z" fill="#1982BC"/>
<path d="M281.832 419.248C284.593 419.248 286.832 417.009 286.832 414.248C286.832 411.487 284.593 409.248 281.832 409.248C279.071 409.248 276.832 411.487 276.832 414.248C276.832 417.009 279.071 419.248 281.832 419.248Z" fill="#1982BC"/>
<path d="M270.832 449.568C273.593 449.568 275.832 447.329 275.832 444.568C275.832 441.807 273.593 439.568 270.832 439.568C268.071 439.568 265.832 441.807 265.832 444.568C265.832 447.329 268.071 449.568 270.832 449.568Z" fill="#1982BC"/>
<path d="M461.272 303.792L339.72 261.52L342.288 254.512L326.392 247.792C320.048 276.52 284.808 298.504 242.176 298.504C199.528 298.504 164.304 276.472 157.968 247.744L142.048 254.4L144.624 261.28L23.064 303.8L0 474.168H30.736H187.472H235H249.328H299.064H453.592H484.328L461.272 303.792Z" fill="#1B967E"/>
<path d="M66.168 474.168H187.472H235H249.328H299.064H453.592H484.328L461.264 303.792L339.712 261.52L342.28 254.512L326.384 247.792C320.04 276.52 284.8 298.504 242.168 298.504C199.52 298.504 164.296 276.472 157.96 247.744L142.04 254.4L144.616 261.28L23.064 303.8" fill="#14826D"/>
<path d="M98.168 474.168H187.472H235H249.328H299.064H453.592H484.328L461.264 303.792L339.712 261.52L342.28 254.512L326.384 247.792C320.04 276.52 284.8 298.504 242.168 298.504C199.52 298.504 164.296 276.472 157.96 247.744L142.04 254.4L145.728 261.76" fill="#076855"/>
<path d="M234.168 474.168H249.336H299.072H453.6H484.336L461.272 303.792L339.72 261.52L342.288 254.512L326.392 247.792C320.048 276.52 284.392 298.968 241.752 298.968" fill="#065646"/>
<path d="M309.944 118.944C309.944 129.56 279.6 152.824 242.16 152.824C204.736 152.824 174.392 129.56 174.392 118.944C174.392 108.32 204.736 118.032 242.16 118.032C279.6 118.024 309.944 108.32 309.944 118.944Z" fill="#E8A991"/>
<path d="M309.944 118.944C309.944 129.56 279.6 152.824 242.16 152.824C204.736 152.824 174.392 129.56 174.392 118.944C174.392 108.32 204.736 126.032 242.16 126.032C279.6 126.024 309.944 108.32 309.944 118.944Z" fill="#F9BDA0"/>
<path d="M242.16 118.024C279.6 118.024 309.944 108.312 309.944 118.936C309.944 129.552 279.6 152.816 242.16 152.816" fill="#E8A991"/>
<path d="M282.168 78.168C282.168 93.632 269.632 106.168 254.168 106.168H230.168C214.704 106.168 202.168 93.632 202.168 78.168C202.168 62.704 214.704 50.168 230.168 50.168H254.168C269.632 50.168 282.168 62.704 282.168 78.168Z" fill="#DFE8E8"/>
<path d="M283.168 77.672C283.168 93.416 286.408 106.168 270.672 106.168H213.672C197.944 106.168 201.168 93.408 201.168 77.672C201.168 61.928 197.952 49.176 213.672 49.176H270.672C286.408 49.168 283.168 61.928 283.168 77.672Z" fill="#DFE8E8"/>
<path d="M270.664 98.1681H213.664C203.856 98.1681 201.424 93.4561 200.976 85.9201C200.632 97.4801 200.912 106.168 213.672 106.168H270.672C283.432 106.168 283.712 97.4801 283.36 85.9121C282.912 93.4561 280.472 98.1681 270.664 98.1681Z" fill="#C0CCCC"/>
<path d="M201.16 70.824C201.16 67.84 201.064 65.024 200.984 62.328C200.776 65.904 200.992 70.096 201.104 74.576C201.128 73.336 201.16 72.104 201.16 70.824Z" fill="#C0CCCC"/>
<path d="M283.16 70.8241C283.16 72.1041 283.208 73.3281 283.24 74.5761C283.352 70.0881 283.568 65.9041 283.36 62.3361C283.272 65.0241 283.16 67.8401 283.16 70.8241Z" fill="#C0CCCC"/>
<path d="M245.424 81.576L261.24 78.328L245.424 75.072L242.176 59.248L238.928 75.072L223.096 78.328L238.912 81.576L242.176 97.4L245.424 81.576Z" fill="#C0CCCC"/>
<path d="M227.96 361.944C227.16 362.76 225.856 362.76 225.04 361.952C224.24 361.136 224.24 359.824 225.04 359.024L256.368 327.704C257.168 326.896 258.488 326.896 259.288 327.704C260.104 328.52 260.104 329.824 259.288 330.624L227.96 361.944Z" fill="#DFE8E8"/>
<path d="M256.36 361.944C257.176 362.76 258.48 362.76 259.28 361.952C260.096 361.136 260.096 359.824 259.28 359.024L227.968 327.704C227.152 326.896 225.848 326.896 225.032 327.704C224.232 328.52 224.232 329.824 225.032 330.624L256.36 361.944Z" fill="#DFE8E8"/>
<path d="M227.96 395.944C227.16 396.76 225.856 396.76 225.04 395.952C224.24 395.136 224.24 393.824 225.04 393.024L256.368 361.704C257.168 360.896 258.488 360.896 259.288 361.704C260.104 362.52 260.104 363.824 259.288 364.624L227.96 395.944Z" fill="#DFE8E8"/>
<path d="M256.36 395.944C257.176 396.76 258.48 396.76 259.28 395.952C260.096 395.136 260.096 393.824 259.28 393.024L227.968 361.704C227.152 360.896 225.848 360.896 225.032 361.704C224.232 362.52 224.232 363.824 225.032 364.624L256.36 395.944Z" fill="#DFE8E8"/>
<path d="M227.96 429.944C227.16 430.76 225.856 430.76 225.04 429.952C224.24 429.136 224.24 427.824 225.04 427.024L256.368 395.704C257.168 394.896 258.488 394.896 259.288 395.704C260.104 396.52 260.104 397.824 259.288 398.624L227.96 429.944Z" fill="#DFE8E8"/>
<path d="M256.36 429.944C257.176 430.76 258.48 430.76 259.28 429.952C260.096 429.136 260.096 427.824 259.28 427.024L227.968 395.704C227.152 394.896 225.848 394.896 225.032 395.704C224.232 396.52 224.232 397.824 225.032 398.624L256.36 429.944Z" fill="#DFE8E8"/>
<path d="M227.96 463.944C227.16 464.76 225.856 464.76 225.04 463.952C224.24 463.136 224.24 461.824 225.04 461.024L256.368 429.704C257.168 428.896 258.488 428.896 259.288 429.704C260.104 430.52 260.104 431.824 259.288 432.624L227.96 463.944Z" fill="#DFE8E8"/>
<path d="M256.36 463.944C257.176 464.76 258.48 464.76 259.28 463.952C260.096 463.136 260.096 461.824 259.28 461.024L227.968 429.704C227.152 428.896 225.848 428.896 225.032 429.704C224.232 430.52 224.232 431.824 225.032 432.624L256.36 463.944Z" fill="#DFE8E8"/>
</g>
<defs>
<clipPath id="clip0_6_5">
<rect width="484.336" height="484.336" fill="white"/>
</clipPath>
</defs>
</svg>
